<svg xmlns="http://www.w3.org/2000/svg" xmlns:xlink="http://www.w3.org/1999/xlink" version="1.1" id="Layer_1" x="0px" y="0px" width="780px" height="15px" viewBox="40.923 213.359 780 15" enable-background="new 40.923 213.359 780 15" xml:space="preserve"><path fill="#1D1E1F" d="M138.956 213.359H40.923v15h98.033h681.967v-15H138.956z M51.211 222.928c0 0.446-0.302 0.809-0.674 0.8 h-3.369c-0.374 0-0.675-0.362-0.675-0.809v-4.043c0-0.446 0.303-0.809 0.675-0.809h3.369c0.372 0 0.7 0.4 0.7 0.809V222.928z M60.646 222.928c0 0.446-0.301 0.809-0.675 0.809h-3.369c-0.372 0-0.673-0.362-0.673-0.809v-4.043c0-0.446 0.301-0.809 0.673-0.809 h3.369c0.374 0 0.7 0.4 0.7 0.809V222.928z M70.081 222.928c0 0.446-0.303 0.809-0.675 0.809h-3.368 c-0.375 0-0.675-0.362-0.675-0.809v-4.043c0-0.446 0.302-0.809 0.675-0.809h3.368c0.372 0 0.7 0.4 0.7 0.809V222.928z M79.515 222.928c0 0.446-0.302 0.809-0.674 0.809h-3.369c-0.374 0-0.675-0.362-0.675-0.809v-4.043c0-0.446 0.303-0.809 0.675-0.809 h3.369c0.372 0 0.7 0.4 0.7 0.809V222.928z M88.949 222.928c0 0.446-0.303 0.809-0.675 0.809h-3.369 c-0.372 0-0.673-0.362-0.673-0.809v-4.043c0-0.446 0.301-0.809 0.673-0.809h3.369c0.374 0 0.7 0.4 0.7 0.809V222.928z M98.383 222.928c0 0.446-0.301 0.809-0.673 0.809h-3.369c-0.374 0-0.674-0.362-0.674-0.809v-4.043c0-0.446 0.302-0.809 0.674-0.809 h3.369c0.372 0 0.7 0.4 0.7 0.809V222.928z M107.818 222.928c0 0.446-0.302 0.809-0.675 0.809h-3.368 c-0.372 0-0.673-0.362-0.673-0.809v-4.043c0-0.446 0.301-0.809 0.673-0.809h3.368c0.375 0 0.7 0.4 0.7 0.809V222.928z M117.252 222.928c0 0.446-0.3 0.809-0.672 0.809h-3.369c-0.374 0-0.675-0.362-0.675-0.809v-4.043c0-0.446 0.303-0.809 0.675-0.809 h3.369c0.372 0 0.7 0.4 0.7 0.809V222.928z M126.688 222.928c0 0.446-0.301 0.809-0.675 0.809h-3.369 c-0.372 0-0.675-0.362-0.675-0.809v-4.043c0-0.446 0.303-0.809 0.675-0.809h3.369c0.374 0 0.7 0.4 0.7 0.809V222.928z M136.122 222.928c0 0.446-0.303 0.809-0.675 0.809h-3.368c-0.373 0-0.675-0.362-0.675-0.809v-4.043 c0-0.446 0.302-0.809 0.675-0.809h3.368c0.374 0 0.7 0.4 0.7 0.809V222.928z M145.557 222.9 c0 0.446-0.302 0.809-0.674 0.809h-3.37c-0.373 0-0.673-0.362-0.673-0.809v-4.043c0-0.446 0.302-0.809 0.673-0.809h3.37 c0.372 0 0.7 0.4 0.7 0.809V222.928z M154.991 222.928c0 0.446-0.302 0.809-0.673 0.809h-3.37 c-0.373 0-0.674-0.362-0.674-0.809v-4.043c0-0.446 0.302-0.809 0.674-0.809h3.37c0.372 0 0.7 0.4 0.7 0.809V222.928z M164.426 222.928c0 0.446-0.302 0.809-0.674 0.809h-3.37c-0.373 0-0.673-0.362-0.673-0.809v-4.043c0-0.446 0.302-0.809 0.673-0.809 h3.37c0.372 0 0.7 0.4 0.7 0.809V222.928z M173.86 222.928c0 0.446-0.302 0.809-0.674 0.809h-3.37 c-0.373 0-0.674-0.362-0.674-0.809v-4.043c0-0.446 0.302-0.809 0.674-0.809h3.37c0.373 0 0.7 0.4 0.7 0.809V222.928z M183.295 222.928c0 0.446-0.302 0.809-0.673 0.809h-3.37c-0.373 0-0.673-0.362-0.673-0.809v-4.043c0-0.446 0.302-0.809 0.673-0.809 h3.37c0.373 0 0.7 0.4 0.7 0.809V222.928z M192.73 222.928c0 0.446-0.302 0.809-0.674 0.809h-3.369 c-0.373 0-0.674-0.362-0.674-0.809v-4.043c0-0.446 0.302-0.809 0.674-0.809h3.369c0.373 0 0.7 0.4 0.7 0.809V222.928z M202.164 222.928c0 0.446-0.302 0.809-0.674 0.809h-3.369c-0.373 0-0.674-0.362-0.674-0.809v-4.043 c0-0.446 0.302-0.809 0.674-0.809h3.369c0.373 0 0.7 0.4 0.7 0.809V222.928z M211.599 222.9 c0 0.446-0.302 0.809-0.674 0.809h-3.369c-0.372 0-0.673-0.362-0.673-0.809v-4.043c0-0.446 0.302-0.809 0.673-0.809h3.369 c0.372 0 0.7 0.4 0.7 0.809V222.928z M221.033 222.928c0 0.446-0.302 0.809-0.674 0.809h-3.369 c-0.373 0-0.674-0.362-0.674-0.809v-4.043c0-0.446 0.302-0.809 0.674-0.809h3.369c0.372 0 0.7 0.4 0.7 0.809V222.928z M230.467 222.928c0 0.446-0.302 0.809-0.673 0.809h-3.37c-0.373 0-0.674-0.362-0.674-0.809v-4.043c0-0.446 0.302-0.809 0.674-0.809 h3.37c0.373 0 0.7 0.4 0.7 0.809V222.928z M239.903 222.928c0 0.446-0.302 0.809-0.674 0.809h-3.369 c-0.373 0-0.674-0.362-0.674-0.809v-4.043c0-0.446 0.302-0.809 0.674-0.809h3.369c0.372 0 0.7 0.4 0.7 0.809V222.928z M249.336 222.928c0 0.446-0.302 0.809-0.673 0.809h-3.37c-0.373 0-0.674-0.362-0.674-0.809v-4.043c0-0.446 0.302-0.809 0.674-0.809 h3.37c0.373 0 0.7 0.4 0.7 0.809V222.928z M258.771 222.928c0 0.446-0.302 0.809-0.674 0.809h-3.369 c-0.373 0-0.674-0.362-0.674-0.809v-4.043c0-0.446 0.302-0.809 0.674-0.809h3.369c0.373 0 0.7 0.4 0.7 0.809V222.928z M268.206 222.928c0 0.446-0.301 0.809-0.673 0.809h-3.369c-0.373 0-0.674-0.362-0.674-0.809v-4.043 c0-0.446 0.302-0.809 0.674-0.809h3.369c0.373 0 0.7 0.4 0.7 0.809V222.928z M277.64 222.928c0 0.446-0.302 0.809-0.674 0.8 h-3.37c-0.372 0-0.673-0.362-0.673-0.809v-4.043c0-0.446 0.302-0.809 0.673-0.809h3.37c0.373 0 0.7 0.4 0.7 0.809V222.928z M287.075 222.928c0 0.446-0.302 0.809-0.674 0.809h-3.37c-0.372 0-0.674-0.362-0.674-0.809v-4.043c0-0.446 0.302-0.809 0.674-0.809 h3.37c0.373 0 0.7 0.4 0.7 0.809V222.928z M296.51 222.928c0 0.446-0.302 0.809-0.673 0.809h-3.37 c-0.373 0-0.673-0.362-0.673-0.809v-4.043c0-0.446 0.302-0.809 0.673-0.809h3.37c0.373 0 0.7 0.4 0.7 0.809V222.928z M305.944 222.928c0 0.446-0.302 0.809-0.674 0.809h-3.37c-0.373 0-0.674-0.362-0.674-0.809v-4.043c0-0.446 0.302-0.809 0.674-0.809 h3.37c0.373 0 0.7 0.4 0.7 0.809V222.928z M315.378 222.928c0 0.446-0.301 0.809-0.673 0.809h-3.37 c-0.373 0-0.674-0.362-0.674-0.809v-4.043c0-0.446 0.302-0.809 0.674-0.809h3.37c0.372 0 0.7 0.4 0.7 0.809V222.928z M324.813 222.928c0 0.446-0.302 0.809-0.674 0.809h-3.37c-0.372 0-0.673-0.362-0.673-0.809v-4.043c0-0.446 0.302-0.809 0.673-0.809 h3.37c0.373 0 0.7 0.4 0.7 0.809V222.928z M334.248 222.928c0 0.446-0.301 0.809-0.673 0.809h-3.37 c-0.373 0-0.674-0.362-0.674-0.809v-4.043c0-0.446 0.301-0.809 0.674-0.809h3.37c0.372 0 0.7 0.4 0.7 0.809V222.928z M343.683 222.928c0 0.446-0.302 0.809-0.674 0.809h-3.37c-0.372 0-0.673-0.362-0.673-0.809v-4.043c0-0.446 0.302-0.809 0.673-0.809 h3.37c0.373 0 0.7 0.4 0.7 0.809V222.928z M353.118 222.928c0 0.446-0.302 0.809-0.673 0.809h-3.37 c-0.372 0-0.674-0.362-0.674-0.809v-4.043c0-0.446 0.302-0.809 0.674-0.809h3.37c0.372 0 0.7 0.4 0.7 0.809V222.928z M362.552 222.928c0 0.446-0.302 0.809-0.673 0.809h-3.37c-0.372 0-0.673-0.362-0.673-0.809v-4.043c0-0.446 0.302-0.809 0.673-0.809 h3.37c0.372 0 0.7 0.4 0.7 0.809V222.928z M371.987 222.928c0 0.446-0.302 0.809-0.674 0.809h-3.37 c-0.373 0-0.674-0.362-0.674-0.809v-4.043c0-0.446 0.302-0.809 0.674-0.809h3.37c0.373 0 0.7 0.4 0.7 0.809V222.928z M381.421 222.928c0 0.446-0.302 0.809-0.673 0.809h-3.37c-0.372 0-0.673-0.362-0.673-0.809v-4.043c0-0.446 0.301-0.809 0.673-0.809 h3.37c0.372 0 0.7 0.4 0.7 0.809V222.928z M390.855 222.928c0 0.446-0.302 0.809-0.674 0.809h-3.37 c-0.373 0-0.673-0.362-0.673-0.809v-4.043c0-0.446 0.301-0.809 0.673-0.809h3.37c0.373 0 0.7 0.4 0.7 0.809V222.928z M400.291 222.928c0 0.446-0.302 0.809-0.674 0.809h-3.37c-0.373 0-0.674-0.362-0.674-0.809v-4.043c0-0.446 0.301-0.809 0.674-0.809 h3.37c0.372 0 0.7 0.4 0.7 0.809V222.928z M409.725 222.928c0 0.446-0.302 0.809-0.674 0.809h-3.37 c-0.373 0-0.673-0.362-0.673-0.809v-4.043c0-0.446 0.301-0.809 0.673-0.809h3.37c0.373 0 0.7 0.4 0.7 0.809V222.928z M419.16 222.928c0 0.446-0.302 0.809-0.674 0.809h-3.37c-0.373 0-0.674-0.362-0.674-0.809v-4.043c0-0.446 0.301-0.809 0.674-0.809 h3.37c0.372 0 0.7 0.4 0.7 0.809V222.928z M428.594 222.928c0 0.446-0.302 0.809-0.674 0.809h-3.369 c-0.373 0-0.673-0.362-0.673-0.809v-4.043c0-0.446 0.301-0.809 0.673-0.809h3.369c0.373 0 0.7 0.4 0.7 0.809V222.928z M438.029 222.928c0 0.446-0.302 0.809-0.675 0.809h-3.369c-0.373 0-0.674-0.362-0.674-0.809v-4.043 c0-0.446 0.302-0.809 0.674-0.809h3.369c0.373 0 0.7 0.4 0.7 0.809V222.928z M447.463 222.9 c0 0.446-0.302 0.809-0.674 0.809h-3.369c-0.374 0-0.674-0.362-0.674-0.809v-4.043c0-0.446 0.301-0.809 0.674-0.809h3.369 c0.373 0 0.7 0.4 0.7 0.809V222.928z M456.896 222.928c0 0.446-0.301 0.809-0.673 0.809h-3.369 c-0.373 0-0.673-0.362-0.673-0.809v-4.043c0-0.446 0.301-0.809 0.673-0.809h3.369c0.373 0 0.7 0.4 0.7 0.809V222.928z M466.332 222.928c0 0.446-0.301 0.809-0.674 0.809h-3.369c-0.373 0-0.675-0.362-0.675-0.809v-4.043 c0-0.446 0.302-0.809 0.675-0.809h3.369c0.373 0 0.7 0.4 0.7 0.809V222.928z M475.766 222.9 c0 0.446-0.302 0.809-0.673 0.809h-3.369c-0.373 0-0.673-0.362-0.673-0.809v-4.043c0-0.446 0.301-0.809 0.673-0.809h3.369 c0.374 0 0.7 0.4 0.7 0.809V222.928z M485.201 222.928c0 0.446-0.301 0.809-0.673 0.809h-3.369 c-0.374 0-0.674-0.362-0.674-0.809v-4.043c0-0.446 0.3-0.809 0.674-0.809h3.369c0.372 0 0.7 0.4 0.7 0.809V222.928z M494.636 222.928c0 0.446-0.302 0.809-0.675 0.809h-3.368c-0.373 0-0.675-0.362-0.675-0.809v-4.043 c0-0.446 0.302-0.809 0.675-0.809h3.368c0.374 0 0.7 0.4 0.7 0.809V222.928z M504.07 222.928c0 0.446-0.3 0.809-0.672 0.8 h-3.369c-0.374 0-0.675-0.362-0.675-0.809v-4.043c0-0.446 0.301-0.809 0.675-0.809h3.369c0.372 0 0.7 0.4 0.7 0.809V222.928z M513.504 222.928c0 0.446-0.301 0.809-0.673 0.809h-3.369c-0.374 0-0.674-0.362-0.674-0.809v-4.043 c0-0.446 0.302-0.809 0.674-0.809h3.369c0.372 0 0.7 0.4 0.7 0.809V222.928z M522.94 222.928c0 0.446-0.302 0.809-0.675 0.8 h-3.368c-0.373 0-0.675-0.362-0.675-0.809v-4.043c0-0.446 0.302-0.809 0.675-0.809h3.368c0.374 0 0.7 0.4 0.7 0.809V222.928z M532.374 222.928c0 0.446-0.3 0.809-0.673 0.809h-3.37c-0.372 0-0.673-0.362-0.673-0.809v-4.043c0-0.446 0.303-0.809 0.673-0.809 h3.37c0.373 0 0.7 0.4 0.7 0.809V222.928z M541.808 222.928c0 0.446-0.301 0.809-0.673 0.809h-3.371 c-0.372 0-0.673-0.362-0.673-0.809v-4.043c0-0.446 0.303-0.809 0.673-0.809h3.371c0.372 0 0.7 0.4 0.7 0.809V222.928z M551.244 222.928c0 0.446-0.303 0.809-0.675 0.809H547.2c-0.372 0-0.674-0.362-0.674-0.809v-4.043c0-0.446 0.302-0.809 0.674-0.809 h3.369c0.374 0 0.7 0.4 0.7 0.809V222.928z M560.677 222.928c0 0.446-0.3 0.809-0.673 0.809h-3.37 c-0.372 0-0.673-0.362-0.673-0.809v-4.043c0-0.446 0.302-0.809 0.673-0.809h3.37c0.373 0 0.7 0.4 0.7 0.809V222.928z M570.113 222.928c0 0.446-0.3 0.809-0.674 0.809h-3.369c-0.372 0-0.675-0.362-0.675-0.809v-4.043c0-0.446 0.303-0.809 0.675-0.809 h3.369c0.374 0 0.7 0.4 0.7 0.809V222.928z M579.547 222.928c0 0.446-0.303 0.809-0.675 0.809h-3.369 c-0.372 0-0.674-0.362-0.674-0.809v-4.043c0-0.446 0.302-0.809 0.674-0.809h3.369c0.372 0 0.7 0.4 0.7 0.809V222.928z M588.981 222.928c0 0.446-0.302 0.809-0.673 0.809h-3.37c-0.373 0-0.673-0.362-0.673-0.809v-4.043c0-0.446 0.302-0.809 0.673-0.809 h3.37c0.372 0 0.7 0.4 0.7 0.809V222.928z M598.417 222.928c0 0.446-0.302 0.809-0.674 0.809h-3.369 c-0.372 0-0.675-0.362-0.675-0.809v-4.043c0-0.446 0.303-0.809 0.675-0.809h3.369c0.372 0 0.7 0.4 0.7 0.809V222.928z M607.851 222.928c0 0.446-0.303 0.809-0.675 0.809h-3.369c-0.372 0-0.675-0.362-0.675-0.809v-4.043 c0-0.446 0.303-0.809 0.675-0.809h3.369c0.372 0 0.7 0.4 0.7 0.809V222.928z M617.285 222.9 c0 0.446-0.303 0.809-0.673 0.809h-3.37c-0.373 0-0.673-0.362-0.673-0.809v-4.043c0-0.446 0.302-0.809 0.673-0.809h3.37 c0.372 0 0.7 0.4 0.7 0.809V222.928z M626.72 222.928c0 0.446-0.302 0.809-0.675 0.809h-3.368 c-0.372 0-0.675-0.362-0.675-0.809v-4.043c0-0.446 0.303-0.809 0.675-0.809h3.368c0.373 0 0.7 0.4 0.7 0.809V222.928z M636.154 222.928c0 0.446-0.3 0.809-0.672 0.809h-3.371c-0.37 0-0.673-0.362-0.673-0.809v-4.043c0-0.446 0.303-0.809 0.673-0.809 h3.371c0.372 0 0.7 0.4 0.7 0.809V222.928z M645.59 222.928c0 0.446-0.303 0.809-0.675 0.809h-3.369 c-0.372 0-0.674-0.362-0.674-0.809v-4.043c0-0.446 0.302-0.809 0.674-0.809h3.369c0.372 0 0.7 0.4 0.7 0.809V222.928z M655.024 222.928c0 0.446-0.302 0.809-0.673 0.809h-3.37c-0.373 0-0.673-0.362-0.673-0.809v-4.043c0-0.446 0.3-0.809 0.673-0.809 h3.37c0.372 0 0.7 0.4 0.7 0.809V222.928z M664.458 222.928c0 0.446-0.302 0.809-0.672 0.809h-3.371 c-0.372 0-0.673-0.362-0.673-0.809v-4.043c0-0.446 0.303-0.809 0.673-0.809h3.371c0.372 0 0.7 0.4 0.7 0.809V222.928z M673.894 222.928c0 0.446-0.303 0.809-0.675 0.809h-3.369c-0.372 0-0.675-0.362-0.675-0.809v-4.043 c0-0.446 0.303-0.809 0.675-0.809h3.369c0.372 0 0.7 0.4 0.7 0.809V222.928z M683.328 222.9 c0 0.446-0.303 0.809-0.673 0.809h-3.37c-0.373 0-0.673-0.362-0.673-0.809v-4.043c0-0.446 0.302-0.809 0.673-0.809h3.37 c0.372 0 0.7 0.4 0.7 0.809V222.928z M692.761 222.928c0 0.446-0.302 0.809-0.673 0.809h-3.37 c-0.372 0-0.673-0.362-0.673-0.809v-4.043c0-0.446 0.302-0.809 0.673-0.809h3.37c0.373 0 0.7 0.4 0.7 0.809V222.928z M702.197 222.928c0 0.446-0.302 0.809-0.674 0.809h-3.369c-0.374 0-0.675-0.362-0.675-0.809v-4.043 c0-0.446 0.303-0.809 0.675-0.809h3.369c0.372 0 0.7 0.4 0.7 0.809V222.928z M711.631 222.9 c0 0.446-0.303 0.809-0.673 0.809h-3.371c-0.372 0-0.672-0.362-0.672-0.809v-4.043c0-0.446 0.3-0.809 0.672-0.809h3.371 c0.372 0 0.7 0.4 0.7 0.809V222.928z M721.067 222.928c0 0.446-0.675 0.809-0.675 0.809h-3.368 c-0.374 0-0.675-0.362-0.675-0.809v-4.043c0-0.446 0.302-0.809 0.675-0.809h3.368c0.373 0 0.7 0.4 0.7 0.809V222.928z M730.5 222.928c0 0.446-0.302 0.809-0.674 0.809h-3.369c-0.374 0-0.675-0.362-0.675-0.809v-4.043c0-0.446 0.303-0.809 0.675-0.809 h3.369c0.372 0 0.7 0.4 0.7 0.809V222.928z M739.935 222.928c0 0.446-0.301 0.809-0.675 0.809h-3.369 c-0.372 0-0.673-0.362-0.673-0.809v-4.043c0-0.446 0.301-0.809 0.673-0.809h3.369c0.374 0 0.7 0.4 0.7 0.809V222.928z M749.371 222.928c0 0.446-0.303 0.809-0.675 0.809h-3.368c-0.375 0-0.675-0.362-0.675-0.809v-4.043 c0-0.446 0.302-0.809 0.675-0.809h3.368c0.372 0 0.7 0.4 0.7 0.809V222.928z M758.804 222.9 c0 0.446-0.302 0.809-0.674 0.809h-3.369c-0.374 0-0.675-0.362-0.675-0.809v-4.043c0-0.446 0.303-0.809 0.675-0.809h3.369 c0.372 0 0.7 0.4 0.7 0.809V222.928z M768.239 222.928c0 0.446-0.303 0.809-0.675 0.809h-3.369 c-0.372 0-0.673-0.362-0.673-0.809v-4.043c0-0.446 0.301-0.809 0.673-0.809h3.369c0.374 0 0.7 0.4 0.7 0.809V222.928z M777.672 222.928c0 0.446-0.301 0.809-0.673 0.809h-3.369c-0.374 0-0.674-0.362-0.674-0.809v-4.043 c0-0.446 0.302-0.809 0.674-0.809H777c0.372 0 0.7 0.4 0.7 0.809V222.928z M787.108 222.928c0 0.446-0.302 0.809-0.675 0.8 h-3.368c-0.372 0-0.673-0.362-0.673-0.809v-4.043c0-0.446 0.301-0.809 0.673-0.809h3.368c0.375 0 0.7 0.4 0.7 0.809V222.928z M796.542 222.928c0 0.446-0.3 0.809-0.672 0.809H792.5c-0.374 0-0.675-0.362-0.675-0.809v-4.043c0-0.446 0.303-0.809 0.675-0.809 h3.369c0.372 0 0.7 0.4 0.7 0.809V222.928z M805.978 222.928c0 0.446-0.301 0.809-0.675 0.809h-3.369 c-0.372 0-0.675-0.362-0.675-0.809v-4.043c0-0.446 0.303-0.809 0.675-0.809h3.369c0.374 0 0.7 0.4 0.7 0.809V222.928z M815.412 222.928c0 0.446-0.303 0.809-0.675 0.809h-3.368c-0.373 0-0.675-0.362-0.675-0.809v-4.043 c0-0.446 0.302-0.809 0.675-0.809h3.368c0.374 0 0.7 0.4 0.7 0.809V222.928z"/></svg>